<?xml version="1.0" standalone="no"?>
<!DOCTYPE svg PUBLIC "-//W3C//DTD SVG 20010904//EN"
 "http://www.w3.org/TR/2001/REC-SVG-20010904/DTD/svg10.dtd">
<svg version="1.0" xmlns="http://www.w3.org/2000/svg"
 width="1024.000000pt" height="1024.000000pt" viewBox="0 0 1024.000000 1024.000000"
 preserveAspectRatio="xMidYMid meet">
<metadata>
Created by potrace 1.14, written by Peter Selinger 2001-2017
</metadata>
<g transform="translate(0.000000,1024.000000) scale(0.100000,-0.100000)"
fill="#000000" stroke="none">
<path d="M5081 9572 c-1 -7 -5 -11 -10 -8 -5 3 -12 -1 -15 -10 -5 -13 -9 -14
-20 -5 -10 9 -15 8 -20 -4 -3 -8 -14 -15 -24 -15 -11 0 -32 -12 -48 -27 -16
-15 -31 -26 -34 -25 -3 1 -5 -2 -5 -6 0 -4 -18 -26 -40 -47 -22 -22 -46 -53
-53 -68 -6 -15 -17 -25 -22 -22 -6 3 -7 -1 -4 -9 4 -10 1 -16 -9 -16 -9 0 -19
-5 -23 -12 -4 -7 -3 -8 4 -4 7 4 12 1 12 -9 0 -9 -4 -14 -9 -11 -5 3 -14 -8
-21 -24 -7 -17 -16 -30 -21 -30 -5 0 -8 -3 -8 -7 3 -19 -2 -34 -9 -29 -5 3 -9
-1 -9 -9 0 -8 5 -11 11 -8 6 4 1 -6 -12 -21 -12 -16 -22 -35 -22 -42 0 -8 -6
-14 -12 -14 -10 0 -9 -3 1 -9 11 -7 9 -10 -8 -16 -21 -6 -22 -7 -4 -21 12 -10
13 -13 4 -12 -9 2 -17 -8 -21 -27 -4 -18 -11 -29 -20 -27 -11 3 -11 0 0 -12 7
-10 8 -16 2 -16 -6 0 -9 -9 -7 -20 2 -11 0 -18 -6 -15 -5 4 -9 -6 -9 -20 0
-14 -3 -24 -7 -22 -5 3 -9 -9 -10 -27 -3 -41 -7 -59 -16 -73 -4 -6 -3 -15 3
-18 7 -4 7 -11 2 -18 -5 -7 -10 -47 -11 -90 0 -43 -2 -81 -2 -85 -1 -4 -1 -11
0 -17 5 -27 2 -246 -4 -255 -3 -5 -3 -10 2 -10 9 0 8 -134 -2 -149 -3 -6 -3
-11 2 -11 9 0 8 -134 -2 -149 -3 -6 -3 -11 2 -11 9 0 8 -134 -2 -149 -3 -6 -2
-11 3 -11 6 0 7 -14 2 -34 -5 -22 -3 -39 3 -45 8 -8 8 -11 -1 -11 -7 0 -10
-12 -8 -30 2 -17 0 -33 -5 -36 -14 -8 -10 -26 4 -18 10 6 10 4 0 -7 -7 -7 -13
-21 -13 -32 0 -10 -5 -15 -10 -12 -13 8 -8 -18 5 -27 6 -5 3 -8 -7 -8 -12 0
-15 -6 -10 -22 4 -15 2 -19 -7 -13 -9 5 -12 2 -9 -11 2 -10 -7 -29 -19 -43
-13 -13 -23 -30 -23 -37 0 -8 -5 -14 -12 -14 -6 0 -9 -3 -5 -6 3 -4 -10 -21
-29 -39 -18 -18 -34 -38 -34 -44 0 -7 -4 -10 -9 -7 -5 3 -12 -1 -15 -10 -3 -8
-11 -12 -17 -8 -8 4 -9 3 -5 -4 4 -7 2 -12 -4 -12 -6 0 -8 -5 -5 -10 4 -6 3
-10 -2 -9 -21 4 -34 -2 -27 -13 5 -7 0 -9 -14 -6 -12 3 -21 3 -20 -1 2 -19 -3
-31 -11 -26 -5 3 -17 -5 -25 -17 -9 -12 -16 -18 -16 -13 0 6 -3 6 -8 0 -4 -6
-19 -16 -34 -24 -15 -8 -25 -18 -22 -23 5 -7 -10 -12 -29 -9 -5 1 -6 -2 -3 -7
3 -5 -2 -18 -10 -28 -9 -10 -13 -12 -9 -4 4 10 2 9 -8 -2 -8 -10 -17 -15 -20
-11 -4 3 -7 -1 -7 -11 0 -9 -4 -14 -10 -11 -5 3 -10 -1 -10 -10 0 -9 -4 -13
-10 -10 -5 3 -10 1 -10 -4 0 -17 -37 -13 -44 4 -3 8 -12 12 -21 9 -8 -3 -15
-1 -15 5 0 6 -7 11 -16 11 -8 0 -12 4 -9 10 4 6 -1 7 -11 3 -11 -4 -15 -3 -11
4 5 7 -1 9 -15 6 -13 -3 -20 -2 -16 2 9 10 -37 35 -63 35 -11 0 -19 7 -19 16
0 8 -5 12 -11 9 -5 -4 -20 1 -31 12 -15 12 -19 13 -13 3 4 -8 -2 -5 -14 8 -12
12 -26 20 -32 17 -5 -4 -9 -1 -9 4 0 6 -9 11 -20 11 -11 0 -20 5 -20 10 0 6
-9 10 -21 10 -11 0 -18 4 -15 9 3 5 -1 12 -10 15 -8 3 -12 2 -9 -4 3 -6 -1 -7
-9 -4 -9 3 -16 10 -16 15 0 5 -9 9 -19 9 -11 0 -23 5 -27 12 -5 7 -3 8 6 3 8
-5 11 -4 6 3 -4 6 -14 8 -23 5 -9 -4 -19 1 -25 11 -5 9 -13 14 -19 11 -5 -4
-9 -1 -9 4 0 6 -9 11 -20 11 -11 0 -20 5 -20 10 0 6 -9 10 -20 10 -11 0 -20 5
-20 10 0 6 -9 10 -20 10 -11 0 -20 5 -20 11 0 5 -4 7 -10 4 -5 -3 -10 -1 -10
5 0 7 -7 10 -15 6 -8 -3 -15 -1 -15 4 0 6 -7 10 -15 10 -8 0 -15 5 -15 10 0 6
-9 10 -19 10 -10 0 -21 7 -25 15 -3 8 -12 12 -21 9 -10 -4 -15 0 -15 11 0 9
-4 14 -10 10 -9 -6 -50 13 -61 28 -4 5 -18 10 -32 10 -14 1 -23 5 -20 10 2 4
-5 7 -16 7 -12 0 -26 9 -33 20 -8 13 -24 20 -43 20 -23 0 -27 3 -15 10 12 8
10 10 -8 10 -13 0 -36 9 -51 19 -14 10 -35 21 -46 23 -11 1 -27 11 -36 21 -9
9 -24 17 -33 17 -9 0 -16 6 -16 13 0 9 -2 9 -9 -1 -7 -11 -9 -10 -15 3 -3 9
-10 13 -16 10 -5 -3 -10 -1 -10 4 0 6 -7 11 -15 11 -8 0 -15 5 -15 10 0 6 -9
10 -20 10 -11 0 -20 5 -20 12 0 6 -3 8 -7 5 -3 -4 -12 -2 -20 4 -7 6 -13 8
-13 3 0 -5 -4 -3 -9 4 -4 7 -17 14 -29 15 -17 1 -19 4 -9 16 8 10 8 13 1 8
-14 -8 -76 12 -70 22 3 4 -5 8 -17 8 -12 1 -23 7 -25 13 -2 5 -8 8 -13 4 -5
-3 -9 0 -9 6 0 6 -4 8 -10 5 -5 -3 -10 -1 -10 4 0 6 -9 11 -19 11 -10 0 -22 7
-25 16 -3 8 -10 12 -16 9 -6 -3 -17 1 -26 9 -9 9 -20 14 -25 11 -5 -4 -9 -1
-9 4 0 6 -8 11 -17 11 -21 1 -55 24 -48 33 3 4 2 5 -2 2 -3 -3 -17 2 -31 11
-13 9 -22 11 -18 6 3 -6 1 -14 -5 -18 -7 -4 -9 -3 -6 3 7 11 -30 46 -42 38 -5
-3 -11 2 -15 10 -3 8 -15 15 -26 15 -11 0 -23 6 -26 14 -3 8 -12 12 -19 9 -8
-2 -24 4 -35 15 -24 22 -80 35 -80 18 0 -6 -5 -4 -10 4 -7 11 -10 11 -10 2 0
-7 -5 -10 -10 -7 -6 4 -10 3 -9 -2 3 -20 -2 -27 -11 -13 -8 13 -10 12 -10 -2
0 -10 -7 -18 -15 -18 -8 0 -15 -5 -15 -11 0 -5 -4 -8 -9 -5 -5 3 -12 -1 -15
-10 -3 -8 -10 -12 -16 -9 -6 3 -13 -1 -16 -10 -4 -9 -12 -14 -19 -11 -8 3 -16
-2 -19 -10 -3 -8 -13 -14 -21 -14 -10 0 -13 -5 -9 -11 4 -7 1 -10 -7 -7 -8 3
-20 -2 -28 -10 -10 -10 -16 -11 -19 -3 -2 6 -12 11 -23 11 -10 0 -19 5 -19 11
0 5 -4 7 -10 4 -5 -3 -10 -1 -10 5 0 6 -4 8 -10 5 -5 -3 -10 -1 -10 4 0 6 -9
11 -20 11 -11 0 -20 3 -20 8 0 4 -9 13 -21 20 -17 11 -20 11 -13 0 4 -7 -2 -5
-14 5 -12 11 -26 16 -33 11 -7 -4 -10 -3 -7 2 3 5 0 14 -7 21 -11 10 -15 10
-18 0 -4 -9 -6 -9 -6 1 -1 6 -8 12 -17 12 -8 0 -12 4 -9 10 4 6 -1 7 -11 3
-11 -4 -15 -2 -11 4 4 6 -4 8 -21 6 -42 -7 -73 -25 -67 -40 2 -8 0 -11 -5 -8
-13 8 -11 23 -13 -193 -1 -101 1 -186 6 -189 4 -2 5 -9 1 -14 -11 -19 -14 -58
-4 -64 6 -4 8 -11 4 -16 -11 -19 -14 -58 -4 -64 6 -4 8 -11 4 -16 -11 -19 -14
-58 -4 -64 6 -4 8 -11 4 -16 -11 -19 -14 -58 -4 -64 6 -4 8 -11 4 -16 -11 -19
-14 -58 -4 -64 6 -4 8 -11 4 -16 -11 -19 -14 -58 -4 -64 6 -4 8 -11 4 -16 -11
-19 -14 -58 -4 -64 6 -4 8 -11 4 -16 -11 -19 -14 -58 -4 -64 6 -4 8 -11 4 -16
-11 -19 -14 -58 -4 -64 6 -4 8 -11 4 -16 -11 -19 -14 -58 -4 -64 6 -4 8 -11 4
-16 -11 -19 -14 -58 -4 -64 6 -4 8 -11 4 -16 -11 -19 -14 -58 -4 -64 6 -4 8
-11 4 -16 -11 -19 -14 -58 -4 -64 6 -4 8 -11 4 -16 -11 -19 -14 -58 -4 -64 6
-4 8 -11 4 -16 -11 -19 -14 -58 -4 -64 6 -4 7 -11 3 -18 -9 -15 -10 -2618 0
-2624 4 -2 5 -9 1 -14 -11 -19 -14 -58 -4 -64 6 -4 8 -11 4 -16 -11 -19 -14
-58 -4 -64 6 -4 8 -11 4 -16 -11 -19 -14 -58 -4 -64 6 -4 8 -11 4 -16 -11 -19
-14 -58 -4 -64 6 -4 8 -11 4 -16 -11 -19 -14 -58 -4 -64 6 -4 8 -11 4 -16 -11
-19 -14 -58 -4 -64 6 -4 8 -11 4 -16 -11 -19 -14 -58 -4 -64 6 -4 8 -11 4 -16
-11 -19 -14 -58 -4 -64 6 -4 8 -11 4 -16 -11 -19 -14 -58 -4 -64 6 -4 8 -11 4
-16 -11 -19 -14 -58 -4 -64 6 -4 8 -11 4 -16 -11 -19 -14 -58 -4 -64 6 -4 8
-11 4 -16 -11 -19 -14 -58 -4 -64 6 -4 7 -13 2 -23 -5 -9 -7 -23 -6 -29 1 -7
2 -17 3 -23 2 -18 54 -58 82 -64 18 -3 29 -12 30 -23 0 -10 3 -13 5 -6 6 14
54 -3 54 -19 0 -5 5 -6 10 -3 6 3 10 1 10 -5 0 -6 5 -8 10 -5 6 3 10 1 10 -5
0 -6 5 -8 10 -5 6 3 13 0 16 -9 3 -8 12 -12 20 -9 7 3 17 -3 20 -12 5 -13 9
-14 15 -3 7 11 10 10 21 -1 11 -12 10 -13 -2 -6 -11 6 -12 5 -4 -4 6 -6 21
-14 34 -16 13 -2 27 -10 32 -17 4 -7 8 -8 8 -3 0 6 5 2 11 -9 9 -14 13 -15 19
-6 6 9 11 7 19 -8 7 -13 17 -19 26 -16 8 4 17 -1 21 -9 3 -9 12 -13 20 -10 7
3 16 -2 20 -10 3 -9 11 -14 19 -11 7 3 20 -2 29 -11 9 -9 16 -13 16 -8 0 4 5
0 11 -9 5 -9 16 -15 24 -12 8 4 18 -1 21 -10 3 -9 11 -13 17 -9 5 3 15 0 21
-8 6 -8 18 -14 26 -14 8 0 14 -5 13 -12 -2 -8 4 -10 14 -6 9 4 21 -1 29 -12
10 -14 14 -15 14 -4 0 10 2 11 8 2 4 -7 18 -14 30 -16 12 -2 25 -7 29 -12 5
-4 1 -5 -7 -1 -8 4 -7 1 3 -8 11 -8 26 -12 35 -9 9 4 13 2 9 -4 -4 -7 5 -14
23 -18 16 -4 30 -13 30 -21 0 -8 5 -14 11 -14 5 0 7 6 3 13 -4 6 2 4 13 -6 11
-9 23 -14 26 -10 4 3 7 1 7 -6 0 -7 5 -9 10 -6 6 3 10 1 10 -5 0 -7 7 -10 15
-6 8 3 14 0 12 -7 -1 -7 4 -11 12 -9 7 1 20 -5 28 -15 8 -10 11 -11 7 -3 -6
11 -2 10 13 -3 11 -9 23 -14 26 -10 4 3 7 1 7 -6 0 -6 6 -11 14 -9 8 2 22 -6
31 -17 9 -11 13 -13 9 -5 -5 10 -1 9 14 -3 11 -11 25 -16 31 -13 5 4 13 1 17
-5 5 -8 3 -9 -6 -4 -9 5 -11 4 -6 -3 4 -7 16 -12 27 -12 10 0 19 -5 19 -11 0
-5 5 -7 11 -4 6 4 17 -1 25 -11 9 -11 12 -12 8 -4 -6 11 -2 10 13 -3 11 -9 23
-14 26 -10 4 3 7 1 7 -5 0 -7 5 -12 12 -12 6 0 20 -8 31 -17 15 -13 18 -14 12
-3 -6 11 -3 10 12 -3 11 -9 23 -14 26 -10 4 3 7 1 7 -6 0 -7 6 -11 14 -8 8 3
22 -3 32 -14 9 -10 23 -19 30 -19 7 0 15 -6 17 -12 4 -9 6 -9 6 1 1 12 4 11
14 -3 7 -9 21 -18 31 -20 9 -1 22 -9 27 -17 5 -8 9 -10 9 -5 0 5 7 3 15 -4 8
-7 15 -9 15 -6 0 4 7 0 16 -8 8 -9 20 -14 25 -11 5 4 9 -2 9 -12 0 -15 2 -16
10 -3 8 12 10 12 10 -5 0 -17 2 -17 10 -5 6 10 10 11 10 3 0 -7 7 -13 15 -13
8 0 15 -5 15 -10 0 -6 3 -9 8 -8 4 1 17 -3 28 -10 12 -6 24 -8 28 -5 3 3 6 0
6 -7 0 -7 3 -10 7 -6 4 3 13 -4 21 -16 7 -13 11 -16 8 -7 -4 15 -2 15 25 2 16
-8 29 -19 29 -24 0 -5 3 -8 8 -7 14 4 72 -21 72 -32 0 -6 4 -9 9 -5 5 3 15 -1
23 -8 7 -8 19 -12 26 -9 6 2 12 -5 12 -15 0 -13 2 -15 9 -5 6 10 10 10 21 -3
7 -9 19 -14 27 -11 8 3 12 2 9 -3 -5 -8 29 -25 47 -22 4 1 7 -4 7 -10 0 -5 5
-7 10 -4 6 3 10 1 10 -4 0 -6 7 -11 15 -11 8 0 15 -4 15 -10 0 -5 6 -7 14 -4
8 3 17 0 22 -7 5 -8 3 -10 -6 -4 -8 5 -11 4 -7 -3 4 -5 15 -9 25 -8 9 2 20 -1
23 -6 3 -5 15 -11 25 -12 10 -2 18 -8 17 -14 -2 -6 6 -9 17 -7 11 2 20 -1 20
-6 0 -6 5 -7 10 -4 6 3 10 1 10 -4 0 -6 7 -11 16 -11 8 0 12 -4 9 -10 -4 -6 1
-7 11 -3 10 4 22 0 30 -11 6 -10 15 -17 18 -17 24 3 36 -1 31 -9 -3 -5 3 -10
14 -10 11 0 23 -4 26 -10 3 -5 15 -10 26 -10 11 0 18 -4 15 -9 -3 -5 1 -12 10
-15 9 -3 12 -2 9 4 -4 6 10 -1 30 -15 21 -13 41 -23 45 -20 4 3 10 -2 14 -10
3 -8 12 -12 21 -9 8 3 15 1 15 -6 0 -6 5 -8 10 -5 6 3 10 1 10 -4 0 -6 7 -11
15 -11 9 0 18 -7 21 -15 4 -8 10 -15 16 -15 5 0 6 6 2 13 -4 6 2 3 14 -7 12
-11 22 -16 22 -12 0 4 10 -3 22 -14 12 -11 27 -19 33 -16 6 2 17 -4 23 -14 7
-11 20 -17 32 -15 11 2 20 -1 20 -7 0 -6 3 -9 6 -5 4 3 13 -1 21 -9 8 -8 19
-12 24 -9 5 4 9 0 9 -8 0 -11 7 -13 22 -9 14 3 19 2 14 -6 -4 -8 0 -12 12 -12
10 0 28 -9 39 -20 14 -12 23 -15 25 -8 3 7 13 3 26 -10 12 -12 27 -22 32 -22
6 0 10 -4 10 -10 0 -5 6 -7 13 -4 7 2 22 -4 34 -15 11 -11 23 -17 27 -14 3 3
12 1 19 -5 8 -7 18 -8 22 -4 5 4 5 2 2 -4 -4 -7 0 -15 9 -18 22 -9 26 -8 18 6
-4 7 -3 8 5 4 6 -4 9 -11 7 -15 -3 -4 4 -13 16 -20 16 -10 19 -10 12 1 -4 7 5
2 20 -12 15 -14 29 -24 32 -22 13 7 34 0 28 -10 -5 -8 -2 -9 9 -5 10 3 17 2
17 -3 0 -6 7 -10 15 -10 8 0 15 -4 15 -9 0 -6 9 -8 20 -6 11 2 23 -1 26 -7 5
-7 2 -8 -7 -3 -8 5 -11 4 -6 -1 9 -9 13 -10 43 -13 8 0 13 -5 9 -10 -3 -6 3
-8 14 -6 11 2 22 -3 25 -12 5 -13 9 -13 23 -2 12 10 14 10 9 2 -5 -9 0 -13 14
-13 12 0 19 -4 16 -8 -2 -4 8 -7 22 -6 15 1 33 -3 40 -9 9 -7 12 -4 12 9 1 16
3 15 16 -6 9 -15 13 -18 9 -6 -5 17 -4 17 12 5 11 -9 14 -10 9 -1 -9 15 -1 15
25 2 14 -8 19 -7 19 2 1 8 6 7 14 -5 12 -15 15 -15 19 -3 4 9 15 13 27 11 11
-2 20 1 20 6 0 6 5 7 10 4 6 -4 18 -1 27 7 14 11 16 11 8 -1 -5 -8 6 -5 23 8
26 18 31 19 25 5 -6 -15 -4 -15 15 2 42 38 52 45 52 34 0 -6 5 -8 10 -5 6 4 7
11 4 17 -4 6 -2 8 4 4 6 -3 13 -2 17 3 3 6 13 7 22 4 12 -5 14 -3 8 7 -6 10
-4 12 8 7 10 -3 17 -2 17 4 0 6 5 7 10 4 6 -3 10 -1 10 5 0 7 7 9 16 6 8 -3
12 -2 9 4 -3 6 0 11 7 12 7 0 18 2 24 2 6 1 19 9 28 19 14 14 21 15 32 6 12
-9 13 -9 9 4 -7 17 10 33 20 17 4 -6 11 -5 19 3 8 6 12 15 9 19 -2 4 3 5 11 2
9 -3 16 -1 16 5 0 6 3 10 8 10 24 -4 42 2 36 13 -5 8 0 9 15 5 14 -3 24 0 28
9 3 8 9 11 14 8 5 -3 9 0 9 6 0 6 5 8 10 5 6 -3 10 -1 10 6 0 7 10 9 24 7 18
-4 23 -1 19 9 -3 8 -2 13 3 11 5 -1 20 4 34 12 14 7 26 13 28 12 9 -7 22 0 17
9 -4 6 -1 9 6 8 20 -3 50 12 44 21 -3 5 4 6 15 3 12 -3 20 0 20 8 0 7 3 9 6 6
4 -3 16 0 26 8 11 7 27 11 36 8 12 -5 14 -2 8 12 -4 11 -4 16 0 12 4 -4 18 0
32 9 17 11 22 12 16 3 -6 -11 -5 -12 8 -2 8 7 19 9 23 5 5 -4 5 -2 2 5 -5 7 4
14 23 18 18 4 27 11 24 17 -4 7 -2 8 5 4 6 -4 18 -2 26 4 8 7 15 9 15 4 0 -4
7 1 16 12 8 10 12 12 8 4 -4 -8 3 -4 16 8 17 19 24 21 31 11 6 -11 9 -10 15 4
3 9 15 17 26 17 11 0 16 5 13 11 -4 6 -1 9 6 8 8 -1 28 4 44 11 17 7 33 13 38
12 4 -1 7 2 7 7 0 13 60 32 74 24 8 -5 8 -3 -1 8 -9 11 -7 14 11 15 21 2 46
-32 46 -64 0 -7 5 -10 10 -7 6 4 10 -5 10 -20 0 -18 4 -24 13 -19 7 5 6 0 -3
-11 -9 -11 -10 -16 -2 -11 7 4 12 1 12 -9 0 -9 5 -13 10 -10 6 4 10 3 9 -2 -5
-27 2 -53 13 -47 8 5 9 0 6 -14 -4 -12 -2 -20 3 -16 9 5 12 -4 12 -38 0 -10 5
-14 15 -10 12 4 14 0 9 -17 -3 -14 0 -24 9 -28 8 -3 12 -9 9 -13 -3 -5 2 -15
10 -24 9 -8 16 -18 15 -21 -1 -21 2 -25 13 -19 9 6 9 4 -1 -8 -11 -14 -10 -18
6 -30 19 -13 22 -18 22 -39 0 -5 4 -8 9 -5 4 3 7 -6 5 -20 -2 -19 1 -24 12
-20 7 3 13 2 11 -2 -3 -11 29 -52 36 -45 4 3 7 -1 7 -11 0 -9 5 -14 10 -11 6
3 10 1 10 -6 0 -7 3 -9 7 -6 3 4 15 -1 26 -10 15 -13 18 -14 12 -3 -6 11 -2
10 12 -3 11 -10 27 -15 37 -11 9 4 16 1 16 -6 0 -10 3 -10 14 -1 10 8 16 9 21
1 4 -7 12 -7 26 0 11 6 23 8 28 6 5 -3 11 0 14 8 4 9 14 12 26 9 13 -3 21 -1
21 6 0 7 4 10 9 6 5 -3 12 -1 16 5 4 6 11 8 16 5 5 -4 9 2 10 12 0 11 2 13 6
5 4 -10 9 -10 24 4 10 9 25 14 33 11 9 -4 18 -1 22 5 5 7 2 8 -6 3 -9 -5 -11
-4 -6 4 4 7 13 10 19 8 7 -2 18 3 25 12 8 9 11 10 7 4 -3 -7 -2 -13 3 -13 6 0
12 7 16 15 3 9 12 12 22 8 13 -5 15 -3 9 7 -6 10 -2 12 19 8 20 -4 26 -2 22 8
-4 10 3 14 24 14 17 0 30 5 30 12 0 6 3 8 8 4 7 -7 8 -11 11 -37 0 -5 7 -7 14
-3 6 4 9 4 5 -1 -4 -4 -2 -15 5 -23 9 -12 9 -14 0 -8 -7 4 -5 -6 4 -23 10 -16
22 -27 28 -23 5 3 3 -3 -5 -13 -9 -11 -10 -16 -2 -11 7 4 12 1 12 -9 0 -9 4
-13 10 -10 5 3 7 0 4 -8 -3 -8 1 -21 8 -28 13 -15 20 -34 21 -56 0 -7 4 -13 9
-13 4 0 8 -7 8 -15 0 -9 6 -18 14 -21 8 -3 13 -16 11 -29 -1 -14 1 -22 5 -20
11 7 33 -22 26 -34 -4 -5 0 -15 7 -23 8 -7 12 -19 9 -26 -2 -6 5 -12 15 -12
15 0 16 -2 3 -10 -11 -7 -11 -10 -2 -10 7 0 10 -4 7 -10 -3 -5 -1 -10 5 -10 6
0 8 -4 5 -10 -3 -5 -1 -10 4 -10 6 0 11 -7 11 -16 0 -8 4 -13 9 -9 6 3 8 -4 6
-15 -3 -13 1 -20 13 -20 12 0 13 -3 5 -11 -15 -15 11 -44 28 -33 7 4 9 3 6 -3
-4 -6 0 -16 8 -23 12 -10 15 -10 15 1 0 9 3 10 8 4 12 -17 51 -13 58 7 3 10
10 18 16 18 5 0 7 7 4 16 -3 8 -2 12 3 9 12 -7 25 31 16 45 -4 6 -1 9 6 8 6
-2 13 10 16 27 2 17 10 35 17 40 7 6 11 16 9 23 -3 6 0 12 7 12 6 0 9 4 5 9
-9 16 34 34 50 21 10 -8 14 -8 18 2 4 10 6 10 6 1 1 -7 8 -13 16 -13 8 0 15
-4 15 -8 0 -5 7 -9 15 -9 8 0 15 5 15 11 0 6 7 0 16 -12 8 -12 20 -20 25 -16
5 3 17 0 26 -8 12 -9 15 -9 9 0 -4 6 -2 12 3 12 6 0 11 -4 11 -9 0 -5 7 -12
16 -15 13 -5 14 -4 5 7 -9 12 -7 13 13 10 25 -5 69 24 60 39 -3 4 0 8 6 8 8 0
7 6 -1 21 -8 15 -8 19 0 15 14 -9 14 -4 -2 28 -8 14 -17 23 -21 19 -4 -4 -4 0
0 10 4 10 1 17 -6 17 -10 0 -9 4 0 16 11 12 11 15 0 12 -8 -2 -14 3 -15 10 0
7 -5 16 -11 20 -6 4 -10 15 -8 25 1 9 -4 17 -12 17 -8 0 -11 6 -7 16 3 9 0 19
-6 24 -7 4 -14 16 -15 26 -2 10 -8 18 -14 17 -6 -1 -9 9 -7 22 1 14 -1 25 -5
25 -10 0 -34 52 -33 72 0 10 -4 15 -8 12 -5 -3 -9 0 -9 6 0 6 -5 8 -12 4 -9
-5 -9 -2 1 9 9 11 10 17 2 17 -6 0 -11 8 -11 18 0 10 -9 28 -20 40 -12 12 -16
22 -10 22 6 0 4 7 -4 16 -9 8 -14 20 -11 25 4 5 -1 9 -10 9 -9 0 -13 5 -10 10
4 6 0 21 -8 33 -8 12 -13 30 -11 40 2 15 0 16 -14 5 -10 -8 -13 -8 -9 -1 4 6
2 24 -5 40 -6 15 -10 32 -9 36 1 5 -3 6 -9 2 -5 -3 -11 -1 -11 4 -4 31 -20 75
-31 82 -5 3 -10 15 -11 27 0 11 -4 19 -7 17 -7 -4 -35 65 -32 78 1 4 -3 7 -9
7 -5 0 -8 4 -4 9 3 5 1 12 -5 16 -6 4 -7 12 -4 18 4 7 4 9 0 5 -5 -4 -22 9
-39 28 -18 19 -38 34 -45 34 -7 0 -15 7 -18 15 -5 12 -10 13 -20 4 -11 -9 -14
-8 -14 5 0 9 -5 16 -11 16 -6 0 -7 -6 -2 -13 4 -7 -4 -5 -18 5 -16 10 -31 13
-39 8 -8 -5 -17 -7 -21 -4 -4 2 -10 0 -14 -6 -4 -6 -13 -7 -23 -1 -12 6 -24 5
-36 -5 -10 -7 -23 -11 -27 -8 -5 3 -9 0 -9 -5 0 -6 -7 -11 -15 -11 -9 0 -18
-6 -21 -14 -3 -8 -13 -12 -26 -8 -15 4 -19 2 -13 -7 5 -9 1 -12 -11 -10 -26 3
-75 -22 -67 -34 4 -6 0 -8 -11 -4 -10 4 -19 1 -22 -8 -3 -7 -12 -11 -19 -9 -8
3 -21 -3 -31 -14 -10 -12 -24 -18 -37 -14 -14 3 -18 1 -13 -6 7 -11 2 -13 -34
-16 -18 -2 -40 16 -33 27 2 4 0 7 -6 7 -6 0 -7 7 -4 17 4 10 2 14 -4 10 -6 -4
-14 0 -17 9 -3 8 -2 12 4 9 6 -3 7 1 4 9 -3 9 -10 16 -15 16 -5 0 -9 7 -9 15
0 8 -6 15 -12 15 -9 0 -8 4 2 10 13 8 12 10 -3 10 -14 0 -16 4 -8 19 6 10 7
22 3 26 -4 3 -2 6 3 5 21 -5 36 0 30 10 -3 5 0 7 8 4 8 -3 21 1 28 8 8 7 21
13 29 13 8 0 14 6 12 13 -1 8 2 11 8 7 5 -3 10 -1 10 6 0 8 4 8 15 -1 12 -10
15 -10 15 3 0 8 7 18 16 21 10 4 13 2 9 -7 -4 -6 0 -4 9 7 8 10 20 15 27 10 8
-4 10 -3 5 4 -5 8 0 12 14 12 11 0 23 6 26 14 3 8 11 13 18 10 7 -3 23 4 36
16 13 11 28 20 35 20 6 0 22 10 35 23 14 12 27 21 30 20 10 -5 40 9 35 16 -2
5 7 7 21 5 19 -2 24 1 20 12 -3 9 -1 12 4 9 6 -3 10 0 10 7 0 9 3 9 10 -2 9
-14 14 -7 11 13 -1 5 3 6 9 2 6 -4 27 6 47 21 20 15 33 21 29 13 -4 -8 -1 -6
7 4 11 14 16 15 20 5 4 -10 6 -10 6 0 1 6 8 12 16 12 7 0 19 8 24 18 6 9 11
13 11 7 0 -5 4 -4 9 4 9 13 26 20 58 23 7 1 9 6 6 11 -4 6 0 8 10 4 9 -3 18 0
21 9 3 8 11 13 18 12 7 -2 12 2 11 9 -2 7 7 10 23 7 20 -4 25 -1 21 9 -3 7 0
14 6 14 24 1 42 8 52 21 6 7 20 14 32 15 12 0 21 6 20 12 -1 5 6 9 16 7 9 -2
20 4 23 12 3 9 10 13 16 10 5 -3 15 2 22 12 8 10 20 15 29 11 10 -4 16 -2 14
5 -1 7 3 12 8 13 6 0 16 4 23 8 6 5 12 5 12 0 0 -4 5 0 11 10 6 9 14 15 20 12
5 -4 9 -1 9 5 0 6 8 10 18 8 10 -2 16 2 14 11 -2 9 3 11 13 7 9 -3 18 1 21 9
4 8 10 12 15 9 5 -3 9 0 9 6 0 7 7 10 15 6 8 -3 15 -1 15 4 0 5 10 14 21 21
17 9 20 8 14 -3 -3 -7 2 -4 12 7 10 11 25 20 33 20 8 0 14 6 12 13 -1 8 2 11
8 7 15 -9 51 5 44 17 -5 7 0 9 14 6 12 -4 20 -2 17 3 -3 4 6 11 20 15 13 3 23
9 21 13 -3 4 5 8 17 8 12 1 23 7 25 13 2 5 7 8 12 5 4 -3 13 2 20 10 7 8 21
15 32 15 12 0 17 4 12 12 -5 8 -2 9 10 5 10 -4 19 -1 22 8 4 8 10 13 14 10 5
-3 15 1 23 9 8 8 17 12 21 9 3 -4 6 -1 6 6 0 7 5 9 10 6 6 -3 10 -1 10 4 0 6
3 10 8 10 19 -3 33 2 27 11 -3 5 0 7 8 4 9 -3 21 4 29 15 8 12 18 18 21 14 4
-3 7 -2 8 3 0 5 3 18 5 29 10 45 11 65 1 65 -6 0 -6 4 0 13 6 6 8 21 6 32 -2
11 -4 26 -4 33 1 14 1 54 1 115 0 23 1 63 3 90 1 26 -2 47 -7 47 -4 0 -3 7 4
15 10 12 10 18 0 30 -7 8 -9 15 -4 15 10 0 10 72 0 89 -4 6 -3 11 2 11 5 0 7
12 5 28 -2 15 -4 33 -3 40 0 14 0 56 0 115 0 23 1 63 3 89 1 27 -2 48 -7 48
-4 0 -4 6 1 13 10 11 10 44 0 53 -3 3 -1 21 3 40 5 23 4 34 -3 34 -8 0 -8 3 0
11 7 7 8 21 3 39 -5 16 -6 31 -3 34 10 9 9 96 -1 96 -4 0 -3 7 4 15 10 12 10
18 0 30 -7 8 -9 15 -4 15 10 0 10 72 0 89 -4 6 -3 11 2 11 5 0 7 12 5 28 -2
15 -4 33 -3 40 0 14 0 56 0 115 0 23 1 63 3 90 1 26 -2 47 -7 47 -4 0 -3 7 4
15 10 12 10 18 0 30 -7 8 -9 15 -4 15 10 0 10 72 0 89 -4 6 -3 11 2 11 5 0 7
12 5 28 -2 15 -4 33 -3 40 0 14 0 56 0 115 0 23 1 63 3 90 1 26 -2 47 -7 47
-4 0 -4 6 1 13 10 12 10 44 0 54 -3 2 -1 18 3 34 6 19 5 29 -2 29 -7 0 -7 5
-1 13 5 6 8 23 6 37 -4 30 -4 32 -1 93 2 26 -1 47 -6 47 -4 0 -3 7 4 15 10 12
10 18 0 30 -7 8 -9 15 -4 15 10 0 10 72 0 89 -4 6 -3 11 2 11 5 0 7 12 5 28
-2 15 -4 33 -3 40 0 14 0 56 0 115 0 23 1 63 3 90 1 26 -2 47 -7 47 -4 0 -3 7
4 15 10 12 10 18 0 30 -7 8 -9 15 -4 15 10 0 10 72 0 89 -4 6 -3 11 2 11 5 0
7 12 5 28 -2 15 -4 33 -3 40 0 14 0 56 0 115 0 23 1 63 3 90 1 26 -2 47 -7 47
-4 0 -4 6 1 13 10 11 10 44 0 53 -3 3 -1 21 3 40 5 23 4 34 -3 34 -8 0 -8 3 0
11 7 7 8 21 3 39 -5 16 -6 31 -3 34 10 9 9 96 -1 96 -4 0 -3 7 4 15 10 12 10
18 0 30 -7 8 -9 15 -4 15 10 0 10 72 0 89 -4 6 -3 11 2 11 5 0 7 12 5 28 -2
15 -4 33 -3 40 0 14 0 56 0 115 0 23 1 63 3 90 1 26 -2 47 -7 47 -4 0 -3 7 4
15 10 12 10 18 0 30 -7 8 -9 15 -4 15 10 0 10 72 0 89 -4 6 -3 11 2 11 5 0 7
12 5 28 -2 15 -4 33 -3 40 0 14 0 56 0 115 0 23 1 63 3 90 1 26 -2 47 -7 47
-4 0 -4 6 1 13 10 12 10 44 0 54 -3 2 -1 18 3 34 6 19 5 29 -2 29 -7 0 -7 5
-1 13 5 6 8 23 6 37 -4 30 -4 32 -1 93 2 26 -1 47 -6 47 -4 0 -4 6 1 13 10 12
10 44 0 54 -3 2 -1 18 3 34 5 18 5 29 -1 29 -6 0 -7 6 -3 12 14 22 12 52 -4
78 -9 14 -15 29 -14 33 1 5 -1 6 -6 3 -4 -2 -25 -1 -45 4 -21 4 -35 4 -31 -1
3 -5 0 -10 -5 -10 -6 -1 -15 -3 -21 -4 -5 -1 -15 -3 -21 -4 -5 0 -8 -5 -5 -10
3 -5 -1 -12 -10 -15 -10 -4 -13 -2 -8 7 4 6 -2 4 -13 -6 -11 -9 -23 -14 -26
-11 -4 4 -9 -1 -13 -10 -3 -9 -15 -16 -25 -16 -11 0 -22 -7 -25 -15 -5 -13 -9
-13 -22 -3 -10 8 -13 8 -9 2 8 -13 -19 -27 -34 -19 -5 4 -6 0 -3 -8 3 -8 0
-18 -7 -23 -8 -4 -10 -3 -5 4 11 19 -5 14 -20 -5 -11 -15 -13 -15 -14 -3 0 13
-1 13 -10 0 -6 -10 -10 -11 -10 -2 0 6 -6 12 -14 12 -7 0 -19 7 -26 15 -7 8
-17 12 -23 8 -5 -3 -7 -1 -4 4 4 6 -1 17 -10 24 -12 10 -14 10 -9 2 4 -7 2
-13 -3 -13 -6 0 -11 5 -11 10 0 6 -6 10 -14 10 -8 0 -17 7 -20 16 -3 8 -10 12
-16 9 -5 -3 -10 -1 -10 4 0 6 -9 11 -21 11 -11 0 -17 5 -14 10 3 6 -1 10 -10
10 -9 0 -14 4 -11 9 11 16 -73 18 -90 1 -11 -9 -14 -10 -9 -2 6 11 3 11 -14 0
-12 -7 -21 -16 -21 -21 0 -4 -5 -5 -12 -1 -8 5 -9 2 -4 -11 5 -15 4 -16 -9 -5
-12 10 -15 10 -15 0 0 -7 -7 -10 -15 -6 -10 3 -15 -1 -15 -12 0 -15 -2 -15
-10 -2 -9 14 -14 7 -11 -13 1 -4 -4 -7 -11 -6 -21 2 -58 -12 -58 -23 0 -5 -5
-6 -10 -3 -6 3 -13 -1 -16 -10 -4 -9 -13 -14 -20 -11 -7 3 -18 -3 -23 -12 -5
-9 -12 -16 -15 -14 -16 6 -34 0 -54 -19 -12 -11 -26 -17 -32 -14 -5 3 -13 -3
-19 -12 -6 -10 -11 -14 -11 -9 0 5 -9 1 -19 -8 -11 -10 -25 -15 -30 -11 -6 3
-14 -1 -17 -10 -4 -9 -13 -14 -20 -11 -8 3 -14 1 -14 -5 0 -6 -4 -7 -10 -4 -5
3 -10 2 -10 -3 0 -8 -28 -20 -47 -20 -3 0 -10 -7 -15 -16 -5 -9 -15 -16 -22
-16 -20 0 -76 -30 -76 -41 0 -6 -4 -8 -9 -5 -9 6 -61 -15 -61 -26 0 -3 -13 -9
-30 -13 -16 -4 -30 -11 -30 -16 0 -6 -4 -7 -10 -4 -5 3 -10 1 -10 -4 0 -6 -7
-11 -15 -11 -9 0 -34 -12 -57 -26 -33 -21 -42 -23 -50 -12 -8 10 -9 9 -4 -4 4
-13 0 -18 -12 -18 -23 -1 -53 -25 -44 -36 4 -4 -1 -2 -10 5 -15 11 -19 11 -24
-3 -3 -9 -10 -13 -15 -10 -5 3 -9 0 -9 -6 0 -7 -6 -10 -14 -7 -8 3 -17 -1 -20
-9 -3 -9 -10 -12 -16 -9 -5 3 -10 1 -10 -5 0 -6 -4 -8 -10 -5 -5 3 -10 1 -10
-4 0 -6 -7 -11 -16 -11 -8 0 -13 -4 -10 -9 3 -4 -5 -7 -19 -6 -17 2 -22 -1
-18 -11 3 -8 2 -14 -3 -13 -5 1 -12 0 -16 -1 -15 -5 -28 -8 -43 -9 -8 0 -15
-7 -15 -15 0 -8 -8 -13 -17 -12 -10 2 -24 -4 -31 -13 -11 -13 -12 -13 -7 -1 5
12 4 12 -7 -1 -7 -9 -19 -14 -25 -12 -7 3 -13 0 -13 -7 0 -6 -4 -8 -10 -5 -5
3 -10 -1 -10 -9 0 -10 -6 -13 -15 -10 -8 4 -15 1 -15 -6 0 -10 -3 -10 -15 0
-13 11 -14 10 -9 -5 5 -13 4 -16 -4 -11 -7 4 -12 3 -12 -3 0 -6 -7 -8 -15 -5
-8 4 -15 1 -15 -6 0 -6 -4 -8 -10 -5 -5 3 -10 0 -10 -7 0 -8 -10 -15 -22 -15
-13 -1 -28 -10 -35 -19 -7 -10 -13 -14 -13 -9 0 5 -5 4 -12 -3 -7 -7 -20 -12
-29 -12 -9 0 -22 -7 -29 -15 -7 -8 -16 -12 -21 -9 -5 3 -9 0 -9 -7 0 -6 -8 -9
-20 -6 -11 3 -18 1 -15 -3 3 -5 -17 -19 -45 -33 -27 -14 -47 -20 -44 -14 3 7
-4 1 -16 -13 -12 -14 -18 -18 -14 -10 6 12 5 13 -8 3 -8 -7 -19 -9 -23 -5 -5
4 -5 1 -1 -5 4 -7 2 -14 -3 -14 -6 -1 -15 -3 -21 -4 -5 -1 -15 -3 -21 -4 -5 0
-7 -6 -3 -13 5 -8 2 -9 -10 -5 -10 4 -24 -1 -35 -12 -11 -11 -22 -17 -25 -14
-3 4 -6 1 -6 -6 0 -7 -4 -10 -9 -6 -5 3 -15 -1 -23 -8 -16 -15 -63 -16 -63 -2
0 15 -52 65 -59 58 -3 -4 -6 1 -6 10 0 10 -5 17 -11 17 -15 0 -39 26 -31 34 3
4 -2 4 -11 0 -13 -5 -20 -1 -24 14 -3 12 -10 18 -19 15 -8 -3 -17 2 -20 11 -3
9 -10 13 -15 10 -5 -3 -9 2 -9 10 0 9 -11 18 -25 22 -13 3 -27 15 -30 25 -4
11 -11 17 -16 14 -5 -4 -9 1 -9 9 0 9 -7 16 -16 16 -8 0 -13 4 -9 9 3 5 -5 11
-17 13 -16 2 -22 9 -20 21 2 10 -3 17 -13 17 -9 0 -14 3 -12 8 6 10 -30 42
-39 34 -4 -4 -4 -1 0 5 4 7 -2 22 -13 35 -12 12 -21 31 -21 41 0 11 -8 26 -17
34 -11 9 -12 12 -3 7 12 -5 12 -4 3 6 -6 7 -9 19 -6 28 4 10 2 13 -5 8 -10 -6
-16 25 -11 60 0 4 -5 11 -13 15 -10 7 -10 9 2 9 13 0 13 1 0 10 -13 9 -13 11
0 20 13 8 12 10 -5 11 -11 0 -15 2 -10 5 6 2 9 25 7 51 -1 27 -3 261 -3 521 0
319 -4 472 -11 472 -6 0 -5 6 2 15 7 8 8 15 3 15 -10 0 -11 4 -15 67 -1 29 -5
40 -13 33 -7 -6 -10 3 -9 31 1 29 -3 39 -15 39 -14 0 -14 2 -1 10 9 6 11 10 3
10 -7 0 -10 7 -6 17 5 12 3 14 -8 8 -11 -7 -11 -5 1 10 9 11 10 16 3 11 -12
-6 -18 5 -14 27 0 4 -3 7 -7 7 -5 0 -9 7 -10 15 -1 8 -3 22 -4 30 -1 8 -5 12
-10 9 -7 -5 -12 13 -11 43 1 7 -3 10 -8 7 -5 -3 -9 4 -9 15 0 12 -4 21 -10 21
-5 0 -10 9 -10 20 0 11 -4 20 -10 20 -5 0 -10 7 -10 15 0 8 -6 15 -12 15 -9 0
-8 4 2 10 10 6 11 10 3 10 -7 0 -20 14 -28 30 -9 18 -21 28 -27 24 -7 -4 -8
-3 -4 4 8 14 -14 52 -31 52 -6 0 -10 9 -8 20 2 11 1 19 -3 19 -4 -1 -14 -1
-22 0 -13 1 -13 2 0 11 9 6 10 10 3 10 -15 0 -63 47 -55 54 3 3 -1 6 -9 6 -9
0 -25 9 -36 19 -12 11 -24 17 -27 14 -3 -4 -6 -1 -6 6 0 7 -4 9 -10 6 -5 -3
-10 -1 -10 4 0 6 -9 11 -21 11 -13 0 -18 4 -13 13 5 8 2 8 -9 -2 -13 -10 -17
-10 -17 -1 0 8 -15 11 -50 8 -28 -1 -52 2 -54 7 -3 6 -5 4 -5 -3z m-351 -8568
c0 -8 -19 -13 -24 -6 -3 5 1 9 9 9 8 0 15 -2 15 -3z"/>
<path d="M3838 9451 c-32 -26 -32 -84 0 -116 13 -14 31 -25 38 -25 8 0 14 -4
14 -10 0 -5 6 -9 13 -7 6 1 11 -4 10 -10 -2 -7 0 -12 5 -12 22 4 42 -2 37 -11
-3 -6 4 -10 16 -10 12 0 28 -8 36 -17 10 -12 12 -13 8 -3 -4 8 1 6 10 -5 9
-11 18 -19 20 -17 12 6 26 1 20 -8 -3 -5 3 -10 14 -10 12 0 21 -4 21 -9 0 -6
9 -8 20 -6 11 2 18 0 15 -6 -7 -11 35 -29 49 -21 5 3 6 0 2 -6 -4 -7 -1 -12 9
-12 9 0 14 -4 11 -8 -7 -12 62 -14 84 -2 11 6 20 18 20 26 0 8 5 12 10 9 15
-9 12 58 -2 74 -11 11 -10 12 1 6 9 -5 12 -4 7 3 -4 7 -14 12 -22 12 -8 0 -14
5 -14 10 0 6 -9 10 -21 10 -11 0 -17 5 -14 10 4 6 -5 10 -19 10 -16 0 -26 6
-26 15 0 9 -6 12 -17 8 -11 -4 -14 -3 -9 5 5 8 0 12 -13 12 -12 0 -21 5 -21
10 0 6 -6 10 -14 10 -21 0 -96 42 -91 51 3 4 -2 9 -10 13 -8 3 -15 0 -15 -7 0
-7 -5 -4 -11 6 -5 9 -17 17 -24 17 -8 0 -23 8 -33 18 -23 23 -87 24 -114 3z"/>
<path d="M6334 9455 c-4 -8 -10 -13 -14 -10 -4 3 -13 -2 -20 -10 -7 -8 -16
-12 -21 -9 -5 3 -9 0 -9 -5 0 -6 -10 -11 -21 -11 -19 0 -20 -2 -8 -17 13 -15
12 -15 -10 -4 -15 8 -21 9 -17 2 6 -10 1 -13 -20 -10 -3 0 -12 -8 -21 -18 -9
-11 -12 -12 -8 -3 4 10 2 9 -8 -2 -8 -10 -17 -15 -20 -11 -4 3 -7 1 -7 -5 0
-7 -8 -12 -18 -12 -11 0 -27 -9 -37 -20 -10 -11 -21 -17 -25 -15 -4 3 -20 -7
-36 -20 -16 -14 -35 -23 -42 -20 -7 3 -10 0 -7 -5 3 -6 0 -10 -7 -10 -9 0 -9
-3 2 -10 13 -9 13 -10 -1 -10 -12 0 -14 -8 -11 -32 6 -43 44 -82 71 -75 12 3
21 0 21 -6 0 -8 4 -7 9 2 5 7 14 10 20 7 6 -4 10 -2 9 4 -2 7 6 14 17 16 11 1
25 10 31 19 9 12 13 13 17 3 4 -10 6 -10 6 0 1 6 8 12 17 12 8 0 12 5 9 10 -3
6 3 10 14 10 12 0 21 5 21 11 0 5 4 8 9 5 5 -4 11 -2 13 3 1 5 10 11 18 13 8
2 21 9 29 16 7 7 20 11 28 8 8 -3 11 -1 8 4 -3 6 -1 10 5 10 6 0 9 4 6 9 -3 5
2 8 12 7 10 0 16 5 14 13 -2 11 0 12 11 2 12 -9 16 -8 21 4 3 9 10 13 16 10 5
-3 10 -1 10 5 0 7 7 9 16 6 8 -3 12 -2 9 3 -3 5 -1 12 5 16 6 4 7 12 3 18 -5
8 -2 8 8 0 14 -11 16 -7 15 29 -1 23 -7 43 -14 46 -7 2 -12 10 -12 17 0 8 -5
17 -12 21 -7 5 -8 2 -3 -7 6 -11 5 -12 -6 -1 -7 6 -22 12 -34 12 -12 0 -27 -6
-34 -12 -11 -10 -13 -10 -7 0 4 6 5 12 1 12 -3 0 -8 -7 -11 -15z"/>
<path d="M3169 8676 c-3 -3 -21 -6 -40 -8 -29 -2 -76 -27 -52 -28 4 0 0 -5 -9
-11 -19 -11 -19 -59 1 -82 6 -8 8 -17 4 -21 -4 -4 0 -4 10 0 9 3 17 1 17 -5 0
-7 115 -10 380 -8 248 1 380 -1 380 -8 0 -7 3 -7 8 0 8 12 72 14 72 2 0 -4 5
-5 11 -1 7 4 40 7 75 7 45 0 65 4 68 14 3 8 11 11 17 7 7 -4 9 -3 5 4 -3 6 0
16 7 23 14 13 11 69 -4 69 -5 0 -9 7 -9 16 0 8 -4 12 -10 9 -5 -3 -10 -1 -10
5 0 6 -4 8 -10 5 -5 -3 -10 -3 -10 2 0 8 -840 8 -872 0 -9 -3 -18 -1 -20 5 -2
5 -6 7 -9 4z"/>
<path d="M6200 8660 c-6 -8 -8 -9 -4 -2 5 11 2 11 -14 1 -12 -7 -19 -16 -16
-20 2 -4 -1 -9 -6 -11 -16 -5 -13 -78 2 -78 5 0 6 -4 3 -10 -3 -5 1 -10 10
-10 9 0 14 -4 11 -9 -4 -5 117 -8 294 -8 194 1 300 -2 300 -8 0 -7 3 -7 8 0 4
6 21 10 37 10 17 0 33 -4 37 -10 5 -7 8 -7 8 0 0 6 61 10 165 9 90 -1 162 2
160 7 -3 4 5 18 17 30 13 12 16 18 8 14 -12 -6 -13 -5 -2 6 14 15 16 43 2 34
-5 -3 -7 0 -5 8 3 7 -3 24 -15 37 -11 13 -20 19 -20 15 0 -5 -5 -4 -11 2 -8 8
-20 8 -35 3 -13 -5 -24 -6 -24 -2 0 9 -466 6 -480 -3 -5 -3 -10 -3 -10 2 0 9
-134 8 -149 -2 -6 -3 -11 -3 -11 2 0 9 -134 8 -149 -2 -6 -3 -11 -3 -11 2 0
15 -88 9 -100 -7z"/>
</g>
</svg>
